<svg width="622" height="474" viewBox="0 0 622 474" fill="none" xmlns="http://www.w3.org/2000/svg">
<path d="M411.491 421.524C431.326 415.335 449.123 409.011 470.533 397.011C492.614 384.632 590.703 325.725 603.459 223.773C606.8 195.831 604.027 167.498 595.329 140.73C591.387 129.193 583.209 106.02 562.568 83.1025C537.301 55.0316 508.47 44.1518 491.564 37.9991C455.995 25.048 426.163 25.7303 411.955 26.1933C396.624 26.6928 369.562 27.8137 338.803 41.2277C318.735 49.9755 306.261 59.9538 287.878 74.8664C258.754 98.5146 254.921 108.359 203.972 157.19C189.984 170.592 178.486 181.155 160.933 191.56C148.763 198.773 138.925 202.805 120.774 210.164C76.1604 228.257 63.4579 231.92 48.8592 242.106C20.4674 261.928 22.3064 283.546 21.0858 288.2C17.9116 300.102 17.1768 312.521 18.9252 324.714C22.6482 349.166 35.8431 365.151 44.0335 374.825C55.276 387.982 68.8994 398.91 84.1921 407.038C94.8086 412.629 105.805 417.469 117.1 421.524H411.491Z" fill="#7A7EF0" fill-opacity="0.15"/>
<path d="M470.893 403.479L470.295 402.418C499.468 386.06 595.65 324.733 608.443 222.423C611.889 193.41 609.01 163.996 600.003 136.198C596.37 125.56 587.859 100.647 566.011 76.383C539.257 46.6667 508.709 35.5457 492.298 29.5705C465.82 20.055 437.711 15.8857 409.604 17.3049C395.521 17.7606 366.215 18.71 333.629 32.9126L333.14 31.7966C365.941 17.5 395.405 16.5458 409.564 16.0866C437.826 14.6626 466.09 18.8568 492.715 28.4258C509.227 34.4367 539.961 45.6255 566.92 75.5691C588.934 100.017 597.501 125.096 601.159 135.805C610.223 163.779 613.12 193.377 609.654 222.573C596.791 325.45 500.193 387.051 470.893 403.479Z" fill="#7A7EF0"/>
<path d="M257.68 259.045C257.616 257.606 257.656 256.189 257.699 254.774L258.621 250.704L260.451 242.562L262.28 234.42L263.195 230.349C263.799 229.059 264.333 227.753 264.999 226.477C265.054 227.914 264.978 229.323 264.972 230.747L264.058 234.818L262.228 242.96L260.399 251.102L259.491 255.175C258.925 256.473 258.355 257.771 257.68 259.045Z" fill="#FCFCFC"/>
<path d="M261.785 262.933C260.738 257.463 259.742 251.985 258.796 246.5C258.306 243.761 257.712 241.035 257.437 238.265C257.13 235.484 257.008 232.686 257.07 229.888L257.25 229.863C258.093 232.531 258.758 235.253 259.241 238.009C259.752 240.745 259.944 243.528 260.239 246.295C260.864 251.825 261.44 257.363 261.965 262.907L261.785 262.933Z" fill="#F65B2B"/>
<path d="M269.771 231.184C269.606 232.616 269.342 234.008 269.074 235.399L267.518 239.271L264.42 247.021L261.321 254.771L259.772 258.646C258.971 259.825 258.236 261.03 257.376 262.185C257.55 260.756 257.848 259.378 258.08 257.972L259.629 254.097L262.728 246.347L265.826 238.597L267.369 234.72C268.134 233.527 268.903 232.336 269.771 231.184Z" fill="#FFBA55"/>
<path d="M254.777 231.054L247.517 232.734L253.535 258.642L260.796 256.961L254.777 231.054Z" fill="#FFBA55"/>
<path d="M269.005 267.134V267.62C269.065 268.797 268.656 269.95 267.867 270.827C267.078 271.705 265.973 272.235 264.794 272.302H252.146C250.967 272.235 249.862 271.705 249.074 270.827C248.285 269.95 247.876 268.797 247.935 267.62V248.67C247.876 247.493 248.285 246.34 249.074 245.463C249.862 244.586 250.967 244.056 252.146 243.989H264.794C265.973 244.056 267.078 244.586 267.867 245.463C268.656 246.34 269.065 247.493 269.005 248.67V267.134V267.134Z" fill="#7CA1B1"/>
<path d="M269.005 251.181H247.935V253H269.005V251.181Z" fill="#FCFCFC"/>
<path d="M269.005 254.818H247.935V256.637H269.005V254.818Z" fill="#FCFCFC"/>
<path d="M340 247.177H425.127V175H340V247.177Z" fill="#E5E1E5"/>
<path d="M381.135 246.198V268.292" stroke="#A5A5A5" stroke-width="1.62898" stroke-miterlimit="10"/>
<path d="M349 272H413V269.432L381 268L349 269.432V272Z" fill="#A5A5A5"/>
<path d="M345.12 242.836H420.007V179.341H345.12V242.836Z" stroke="#A5A5A5" stroke-width="0.35826" stroke-miterlimit="10"/>
<path d="M382.212 260.463C382.212 260.463 398.144 236.95 398.533 236.955C398.923 236.961 401.589 237.224 393.974 249.629C393.974 249.629 397.531 250.117 397.854 256.851C397.903 257.93 397.699 259.005 397.258 259.995C396.817 260.984 396.152 261.863 395.311 262.563C393.224 264.306 390.278 266.409 388.442 266.178L382.212 260.463Z" fill="#F9977A"/>
<path d="M217.489 271.664C217.359 270.853 204.872 190.081 240.815 152.82C255.407 137.693 276.018 131.627 302.075 134.794L302.612 134.859V158.473H301.391V135.939C275.985 132.968 255.906 138.931 241.694 153.665C206.169 190.493 218.565 270.666 218.694 271.472L217.489 271.664Z" fill="#4724BE"/>
<path d="M329.055 183.154H273.061L273.14 182.474C273.947 175.65 277.236 169.358 282.382 164.793C287.528 160.228 294.173 157.706 301.058 157.706C307.943 157.706 314.588 160.228 319.734 164.793C324.88 169.358 328.168 175.65 328.976 182.474L329.055 183.154Z" fill="#4724BE"/>
<path d="M248.194 272.842H213.2V271.018C213.201 270.575 213.378 270.149 213.692 269.836C214.006 269.522 214.432 269.345 214.877 269.345H246.518C246.962 269.345 247.389 269.522 247.703 269.836C248.017 270.149 248.194 270.575 248.194 271.018V272.842Z" fill="#4724BE"/>
<path d="M226.141 421.982H235.159L235.159 279.208H226.141L226.141 421.982Z" fill="#935B50"/>
<path d="M210.431 279.207L478.314 279.207C479.172 279.207 479.869 278.513 479.869 277.656V273.856C479.869 272.999 479.172 272.304 478.314 272.304L210.431 272.304C209.572 272.304 208.876 272.999 208.876 273.856V277.656C208.876 278.513 209.572 279.207 210.431 279.207Z" fill="#935B50"/>
<path d="M452.867 421.982H461.885V279.208H452.867V421.982Z" fill="#935B50"/>
<path d="M465.969 301.787L222.159 301.787C221.335 301.787 220.544 301.46 219.961 300.878C219.378 300.296 219.05 299.507 219.05 298.684V279.208L469.078 279.208V298.684C469.078 299.507 468.751 300.296 468.168 300.878C467.584 301.46 466.794 301.787 465.969 301.787V301.787Z" fill="#C38F86"/>
<path d="M308.093 217.626L306.907 174.898L338.871 176.649L337.469 202.157C337.396 203.486 337.061 204.788 336.484 205.989C335.907 207.189 335.098 208.264 334.105 209.153C333.111 210.041 331.952 210.725 330.694 211.167C329.435 211.608 328.102 211.798 326.77 211.725L326.041 211.685L325.803 218.979L308.093 217.626Z" fill="#F9977A"/>
<path d="M326.041 211.685L320.93 211.405L325.803 218.978L326.041 211.685Z" fill="#DD765E"/>
<path d="M305.622 210.567C305.622 210.567 321.518 214.033 327.734 195.693C327.734 195.693 320.809 191.416 328.188 187.434C328.188 187.434 332.127 186.838 332.155 189.276L338.871 176.649C338.871 176.649 344.956 178.444 345.032 171.138C345.032 171.138 351.565 167.76 343.955 164.094C343.955 164.094 344.778 155.043 335.813 161.212C335.813 161.212 330.711 147.45 314.734 165.743C314.734 165.743 290.28 166.516 300.688 187.39L305.622 210.567Z" fill="#160B07"/>
<path d="M419.178 390.733C419.178 390.733 421.023 396.315 422.897 398.777C424.771 401.238 444.63 418.983 444.63 418.983L409.053 417.509C409.053 417.509 398.777 417.384 402.348 406.379C405.918 395.373 405.275 389.061 405.275 389.061L419.178 390.733Z" fill="#F9977A"/>
<path d="M436.154 355.315C436.154 355.315 439.005 360.458 441.305 362.53C443.605 364.601 466.422 378.352 466.422 378.352L431.191 383.504C431.191 383.504 421.07 385.287 422.529 373.811C423.989 362.335 422.181 356.252 422.181 356.252L436.154 355.315Z" fill="#F9977A"/>
<path d="M437.316 411.051C427.498 404.148 424.663 399.542 424.663 399.542C424.663 399.542 423.978 396.108 420.689 402.287C418.277 406.821 412.668 413.022 409.851 416.005C409.603 416.266 409.302 416.472 408.969 416.607C408.635 416.743 408.276 416.806 407.916 416.791L404.156 416.649C403.808 416.636 403.461 416.694 403.137 416.821C402.813 416.948 402.518 417.14 402.271 417.385C402.025 417.63 401.831 417.924 401.703 418.247C401.575 418.57 401.515 418.916 401.527 419.263V419.263C401.549 419.919 401.826 420.541 402.299 420.997C402.772 421.453 403.404 421.708 404.062 421.708L442.786 421.69C443.255 421.689 443.714 421.559 444.113 421.313C444.513 421.068 444.836 420.717 445.048 420.299C445.259 419.881 445.351 419.413 445.312 418.946C445.274 418.48 445.106 418.033 444.829 417.656C442.666 415.095 440.134 412.869 437.316 411.051Z" fill="#065082"/>
<path d="M457.003 370.317C446.361 364.764 442.942 360.571 442.942 360.571C442.942 360.571 441.81 357.256 439.366 363.814C437.572 368.626 432.83 375.51 430.431 378.837C430.22 379.128 429.949 379.372 429.636 379.55C429.323 379.728 428.975 379.838 428.616 379.871L424.871 380.224C424.524 380.256 424.188 380.36 423.883 380.528C423.578 380.696 423.311 380.925 423.099 381.201C422.887 381.476 422.734 381.793 422.65 382.13C422.565 382.467 422.551 382.818 422.609 383.161V383.161C422.718 383.808 423.074 384.388 423.603 384.778C424.132 385.168 424.792 385.338 425.444 385.251L463.829 380.145C464.293 380.082 464.732 379.892 465.095 379.597C465.459 379.301 465.733 378.91 465.887 378.468C466.042 378.026 466.071 377.55 465.971 377.093C465.871 376.635 465.647 376.215 465.322 375.877C462.84 373.622 460.037 371.748 457.003 370.317V370.317Z" fill="#065082"/>
<path d="M287.238 284.944C287.238 284.944 270.503 219.112 306 216.012L325.803 218.979C325.803 218.979 333.44 224.491 339.929 237.279C346.418 250.067 352.908 261.527 352.908 261.527L386.519 253.223L391.011 266.177C391.011 266.177 357.76 284.246 350.883 284.467C350.883 284.467 337.154 287.099 331.503 274.241L331.61 287.163C331.61 287.163 293.672 289.595 287.238 284.944Z" fill="#AAD7E1"/>
<path d="M359.964 296.8L399.679 283.006C404.633 281.285 410.065 281.571 414.809 283.805C419.553 286.038 423.23 290.04 425.049 294.951C432.065 313.642 437.422 332.912 441.058 352.54C441.161 353.133 441.04 353.743 440.72 354.253C440.399 354.763 439.901 355.138 439.322 355.304L426.786 358.906L425.546 390.666C425.522 391.296 425.254 391.891 424.799 392.328C424.344 392.764 423.738 393.008 423.107 393.008H405.128C404.547 393.008 403.986 392.802 403.544 392.426C403.102 392.05 402.809 391.53 402.717 390.958L394.173 337.869L374.428 339.641C374.428 339.641 270.821 360.678 287.238 284.944L331.61 287.163L336.789 291.956C339.847 294.787 343.62 296.734 347.703 297.587C351.786 298.44 356.024 298.168 359.964 296.8V296.8Z" fill="#FFDCA6"/>
<path d="M297.789 338.031H291.686V421.442H297.789V338.031Z" fill="#C38F86"/>
<path d="M357.6 338.031H351.496V421.442H357.6V338.031Z" fill="#C38F86"/>
<path d="M352.908 261.527C353.044 262.211 352.989 262.92 352.746 263.574C352.525 264.236 352.121 264.823 351.581 265.266C351.35 264.585 351.356 263.845 351.596 263.167C351.837 262.489 352.299 261.912 352.908 261.527V261.527Z" fill="#5E7C24"/>
<path d="M334.272 279.187C332.255 276.47 330.426 273.619 328.796 270.654C327.118 267.716 325.644 264.666 324.385 261.527C326.404 264.243 328.234 267.094 329.861 270.06C331.536 272.999 333.01 276.048 334.272 279.187V279.187Z" fill="#5E7C24"/>
<path d="M351.581 342.179C362.184 337.065 372.861 332.114 383.535 327.154L399.592 319.818C404.938 317.359 410.3 314.934 415.677 312.543L415.601 312.585C416.144 312.276 416.746 312.085 417.369 312.024C417.991 311.963 418.619 312.033 419.212 312.231C420.329 312.641 421.306 313.361 422.028 314.306C423.349 316.1 424.326 318.122 424.912 320.27C426.057 324.457 426.753 328.752 426.99 333.086C427.516 341.687 427.448 350.314 426.786 358.906C426.836 354.604 426.927 350.306 426.821 346.009C426.718 341.715 426.575 337.422 426.158 333.157C425.812 328.902 425.055 324.691 423.9 320.581C423.339 318.573 422.415 316.684 421.174 315.008C420.581 314.233 419.779 313.642 418.863 313.304C418.43 313.164 417.974 313.114 417.521 313.156C417.068 313.199 416.628 313.333 416.229 313.55L416.172 313.583L416.153 313.592C410.805 316.048 405.444 318.475 400.071 320.873L383.961 328.093C373.19 332.837 362.422 337.589 351.581 342.179Z" fill="#E6952A"/>
<path d="M439.704 345.433C437.769 346.598 435.721 347.563 433.59 348.313C431.477 349.114 429.288 349.696 427.056 350.049C428.99 348.882 431.039 347.917 433.171 347.169C435.284 346.371 437.473 345.789 439.704 345.433Z" fill="#E6952A"/>
<path d="M401.624 384.165C405.638 383.734 409.674 383.53 413.712 383.557C417.75 383.528 421.786 383.731 425.8 384.165C421.786 384.6 417.75 384.803 413.712 384.774C409.674 384.801 405.638 384.597 401.624 384.165V384.165Z" fill="#E6952A"/>
<path d="M394.173 337.869C393.285 337.019 392.563 336.011 392.044 334.897C391.482 333.804 391.132 332.615 391.011 331.392C391.902 332.241 392.624 333.249 393.14 334.364C393.7 335.458 394.05 336.647 394.173 337.869V337.869Z" fill="#E6952A"/>
<path d="M272.707 324.472C272.707 324.472 265.053 301.553 271.043 254.717C271.043 254.717 273.372 238.94 289.013 237.777C304.654 236.615 316.135 261.92 320.794 287.798C325.453 313.677 335.769 336.807 369.547 337.449C369.547 337.449 414.179 345.066 319.15 349.384C319.15 349.384 278.531 349.716 272.707 324.472Z" fill="#935B50"/>
<path d="M448.024 247.763V248.147C447.994 249.153 447.565 250.106 446.832 250.798C446.099 251.489 445.121 251.862 444.113 251.834H432.364C431.356 251.862 430.378 251.489 429.644 250.798C428.911 250.106 428.483 249.153 428.453 248.147V233.22C428.483 232.214 428.911 231.26 429.644 230.569C430.378 229.878 431.356 229.505 432.364 229.532H444.113C445.121 229.505 446.099 229.878 446.832 230.569C447.565 231.26 447.994 232.214 448.024 233.22V247.763Z" fill="#FFBA55"/>
<path d="M454.5 233.338H448.024V235.55H453.327V245.551H448.024V247.763H454.5C454.65 247.767 454.799 247.742 454.939 247.689C455.079 247.636 455.208 247.555 455.316 247.453C455.425 247.35 455.513 247.227 455.574 247.09C455.636 246.954 455.669 246.806 455.673 246.657V234.444C455.669 234.294 455.636 234.147 455.574 234.011C455.513 233.874 455.425 233.751 455.316 233.648C455.207 233.545 455.079 233.465 454.939 233.412C454.799 233.359 454.65 233.333 454.5 233.338V233.338Z" fill="white"/>
<path d="M442.339 237.167H438.998C438.578 237.167 438.238 237.507 438.238 237.926V240.991C438.238 241.41 438.578 241.75 438.998 241.75H442.339C442.759 241.75 443.099 241.41 443.099 240.991V237.926C443.099 237.507 442.759 237.167 442.339 237.167Z" fill="white"/>
<path d="M441.219 229.532H440.118V237.168H441.219V229.532Z" fill="#E5CAF3"/>
<path d="M462.655 271.596H425.262V266.03H462.655C463.311 266.03 463.94 266.291 464.404 266.753C464.867 267.216 465.128 267.844 465.128 268.499V269.128C465.128 269.452 465.064 269.773 464.94 270.072C464.815 270.372 464.633 270.644 464.404 270.873C464.174 271.103 463.901 271.284 463.601 271.408C463.301 271.532 462.98 271.596 462.655 271.596Z" fill="white"/>
<path d="M424.095 271.739C424.1 271.877 424.159 272.007 424.259 272.102C424.36 272.196 424.494 272.247 424.632 272.243H463.362C464.127 272.059 464.807 271.623 465.293 271.006C465.78 270.389 466.044 269.627 466.044 268.842C466.044 268.057 465.78 267.294 465.293 266.677C464.807 266.061 464.127 265.625 463.362 265.44H424.632C424.494 265.436 424.36 265.487 424.259 265.581C424.159 265.676 424.1 265.807 424.095 265.944V266.341C424.1 266.479 424.159 266.61 424.259 266.704C424.36 266.799 424.494 266.85 424.632 266.846H463.362C463.811 266.954 464.21 267.21 464.495 267.572C464.781 267.934 464.936 268.381 464.936 268.842C464.936 269.302 464.781 269.75 464.495 270.112C464.21 270.474 463.811 270.729 463.362 270.838H424.632C424.494 270.834 424.36 270.884 424.259 270.979C424.159 271.073 424.1 271.204 424.095 271.342V271.739Z" fill="#F65B2B"/>
<path d="M468.477 264.793H431.084V259.227H468.477C469.133 259.227 469.762 259.487 470.226 259.95C470.689 260.413 470.95 261.041 470.95 261.696V262.325C470.95 262.649 470.886 262.97 470.762 263.269C470.637 263.569 470.455 263.841 470.226 264.07C469.996 264.3 469.723 264.481 469.423 264.605C469.123 264.729 468.802 264.793 468.477 264.793V264.793Z" fill="white"/>
<path d="M429.917 264.936C429.922 265.074 429.981 265.204 430.081 265.299C430.182 265.393 430.316 265.444 430.454 265.44H469.184C469.949 265.255 470.629 264.82 471.115 264.203C471.602 263.586 471.866 262.824 471.866 262.039C471.866 261.254 471.602 260.491 471.115 259.874C470.629 259.257 469.949 258.822 469.184 258.637H430.454C430.316 258.633 430.182 258.684 430.081 258.778C429.981 258.873 429.922 259.003 429.917 259.141V259.538C429.922 259.676 429.981 259.807 430.081 259.901C430.182 259.996 430.316 260.047 430.454 260.043H469.184C469.633 260.151 470.032 260.407 470.317 260.769C470.603 261.131 470.758 261.578 470.758 262.039C470.758 262.499 470.603 262.946 470.317 263.309C470.032 263.671 469.633 263.926 469.184 264.035H430.454C430.316 264.03 430.182 264.081 430.081 264.176C429.981 264.27 429.922 264.401 429.917 264.539V264.936Z" fill="#FFBA55"/>
<path d="M456.559 257.99H419.167V252.424H456.559C457.215 252.424 457.844 252.684 458.308 253.147C458.772 253.61 459.032 254.238 459.032 254.893V255.522C459.032 256.176 458.772 256.804 458.308 257.267C457.844 257.73 457.215 257.99 456.559 257.99V257.99Z" fill="white"/>
<path d="M418 258.133C418.004 258.271 418.063 258.401 418.164 258.496C418.264 258.59 418.399 258.641 418.537 258.637H457.267C458.031 258.452 458.711 258.017 459.198 257.4C459.684 256.783 459.949 256.021 459.949 255.236C459.949 254.451 459.684 253.688 459.198 253.071C458.711 252.454 458.031 252.019 457.267 251.834H418.537C418.399 251.83 418.264 251.881 418.164 251.975C418.063 252.07 418.004 252.2 418 252.338V252.735C418.004 252.873 418.063 253.004 418.164 253.098C418.264 253.193 418.399 253.244 418.537 253.24H457.267C457.716 253.348 458.115 253.604 458.4 253.966C458.685 254.328 458.841 254.775 458.841 255.236C458.841 255.696 458.685 256.143 458.4 256.505C458.115 256.868 457.716 257.123 457.267 257.232H418.537C418.399 257.227 418.264 257.278 418.164 257.373C418.063 257.467 418.004 257.598 418 257.736V258.133Z" fill="#F65B2B"/>
<path d="M511.18 311.036C514.067 313.274 519.152 318.591 519.289 322.578C519.289 322.578 528.635 312.435 525.978 303.76C524.404 300.518 521.793 297.893 518.556 296.298C518.556 296.298 522.221 294.246 526.069 299.283C526.069 299.283 524.695 285.665 505.683 290.609C505.683 290.609 498.261 275.499 483.555 289.769C483.555 289.769 493.451 288.51 491.527 291.588C487.944 292.593 484.592 294.283 481.654 296.563C480.669 297.434 479.867 298.492 479.297 299.676C478.727 300.86 478.399 302.145 478.332 303.457C478.104 307.141 477.752 314.432 478.47 314.533C479.432 314.673 485.754 308.937 490.015 309.357C494.276 309.776 480.257 322.368 480.257 322.368C480.257 322.368 483.143 333.281 484.38 333.141C485.617 333.001 490.107 329.877 488.274 333.141L485.113 335.66L489.236 341.349L499.59 336.779C499.59 336.779 495.009 324.28 499.223 327.685C499.223 327.685 502.43 331.929 502.476 335.1C502.476 335.1 516.334 329.084 514.96 324.956C513.464 321.127 511.714 317.401 509.722 313.803C509.388 313.195 509.193 312.52 509.15 311.828C509.104 310.779 509.378 309.636 511.18 311.036ZM509.478 296.547C510.776 295.653 513.968 296.228 515.166 299.143C516.449 302.26 516.395 305.734 515.098 306.628C513.799 307.522 510.111 306.356 509.188 303.34C508.164 299.983 508.18 297.441 509.478 296.547Z" fill="#8B9D36"/>
<path d="M505.683 290.609C504.205 292.287 502.839 294.06 501.593 295.917C500.415 297.804 499.443 299.813 498.694 301.907C497.939 303.997 497.33 306.141 496.785 308.308C496.232 310.478 495.704 312.645 495.263 314.833C494.797 317.015 494.389 319.212 494.055 321.418C493.711 323.623 493.514 325.842 493.242 328.073C492.715 332.554 491.376 336.901 489.291 340.904C490.18 338.852 490.913 336.736 491.486 334.574C492.079 332.427 492.469 330.23 492.652 328.01C492.982 323.53 493.602 319.076 494.509 314.676C494.975 312.478 495.531 310.297 496.107 308.133C496.649 305.947 497.329 303.797 498.143 301.696C498.968 299.593 500.02 297.585 501.28 295.708C502.616 293.9 504.088 292.195 505.683 290.609V290.609Z" fill="#5E7C24"/>
<path d="M500.286 297.718C499.525 297.864 498.773 298.053 498.034 298.284C497.291 298.489 496.56 298.735 495.837 298.997C494.393 299.528 492.971 300.111 491.575 300.756C490.172 301.386 488.81 302.102 487.44 302.814C486.074 303.535 484.742 304.32 483.372 305.066C483.966 304.563 484.587 304.093 485.202 303.612C485.846 303.176 486.481 302.72 487.14 302.302C488.459 301.462 489.833 300.712 491.254 300.057C492.677 299.401 494.15 298.859 495.659 298.435C497.162 297.989 498.718 297.748 500.286 297.718Z" fill="#5E7C24"/>
<path d="M494.022 319.356C492.957 320.18 491.849 320.855 490.766 321.559C490.224 321.906 489.694 322.265 489.177 322.635C488.643 322.989 488.194 323.455 487.862 324C487.935 323.305 488.259 322.661 488.775 322.188C489.251 321.707 489.778 321.279 490.348 320.913C491.471 320.181 492.715 319.654 494.022 319.356Z" fill="#5E7C24"/>
<path d="M496.145 309.391C497.399 310.564 498.57 311.824 499.647 313.161C500.744 314.487 501.751 315.885 502.661 317.345C503.592 318.802 504.38 320.344 505.014 321.95C505.683 323.548 506.049 325.255 506.095 326.985C505.761 325.322 505.214 323.708 504.469 322.183C503.738 320.658 502.916 319.178 502.007 317.752C501.124 316.306 500.153 314.912 499.177 313.518C498.192 312.13 497.175 310.761 496.145 309.391Z" fill="#5E7C24"/>
<path d="M483.464 353.102L487.312 356.646C487.312 356.646 491.069 352.682 491.481 355.433C491.481 355.433 490.885 358.185 490.152 358.418C490.152 358.418 499.361 365.81 501.216 359.724C501.962 357.002 502.904 354.336 504.034 351.749C504.034 351.749 506.095 352.868 504.309 361.683C504.309 361.683 511.435 359.592 514.081 355.758C514.385 355.305 514.547 354.772 514.547 354.228C514.572 352.035 514.862 345.865 517.365 348.181C517.365 348.181 518.808 348.881 517.709 353.568C517.709 353.568 523.509 347.042 520.754 343.03C520.209 342.279 519.421 341.739 518.523 341.502C517.624 341.266 516.671 341.347 515.826 341.733C514.216 342.431 511.228 343.716 505.683 346.083C498.545 349.197 491.097 351.549 483.464 353.102V353.102Z" fill="#8B9D36"/>
<path d="M496.145 358.511C496.501 356.495 497.139 354.539 498.039 352.699C498.483 351.765 499.029 350.882 499.666 350.067C499.991 349.653 500.366 349.281 500.784 348.96C501.198 348.625 501.715 348.441 502.248 348.438C501.772 348.58 501.349 348.86 501.034 349.243C500.707 349.608 500.413 350.002 500.154 350.419C499.632 351.264 499.157 352.138 498.731 353.037C497.847 354.832 497.059 356.681 496.145 358.511Z" fill="#5E7C24"/>
<path d="M508.661 355.62C508.556 353.814 508.72 352.003 509.149 350.246C509.362 349.358 509.664 348.495 510.048 347.667C510.402 346.802 511.045 346.086 511.868 345.64C511.273 346.282 510.84 347.056 510.604 347.898C510.335 348.727 510.104 349.572 509.898 350.427C509.48 352.139 509.134 353.874 508.661 355.62Z" fill="#5E7C24"/>
<path d="M572.707 292.081C572.707 292.081 563.453 293.407 571.699 299.936C571.699 299.936 573.807 301.708 580.679 303.76C580.679 303.76 584.985 285.066 572.707 292.081Z" fill="#5E7C24"/>
<path d="M580.679 303.76C580.507 303.148 580.395 302.535 580.241 301.932C580.054 301.338 579.923 300.732 579.702 300.156C579.301 299.002 578.781 297.892 578.151 296.845C577.505 295.816 576.721 294.879 575.82 294.063C574.901 293.232 573.849 292.563 572.707 292.081C573.977 292.295 575.174 292.817 576.193 293.602C577.233 294.377 578.119 295.34 578.805 296.439C579.471 297.541 579.965 298.738 580.269 299.989C580.427 300.607 580.498 301.243 580.611 301.865C580.642 302.5 580.68 303.132 580.679 303.76Z" fill="#50661A"/>
<path d="M560.963 254.313C560.963 254.313 571.222 247.788 574.295 262.275C574.295 262.275 568.971 257.701 568.9 260.347C570.625 262.363 571.937 264.696 572.763 267.216C573.241 269.093 572.975 271.082 572.02 272.769C570.716 275.138 568.081 279.791 567.618 279.581C566.998 279.299 565.521 273.318 562.854 271.945C560.186 270.572 563.51 283.754 563.51 283.754C563.51 283.754 557.554 289.414 556.882 288.854C556.209 288.293 554.789 284.635 554.593 287.361L555.468 290.134L550.824 292.082L546.523 285.278C546.523 285.278 554.094 279.284 550.288 279.78C550.288 279.78 546.746 281.182 545.482 283.131C545.482 283.131 539.685 274.087 542.104 272.055C544.466 270.264 546.943 268.627 549.517 267.156C550.037 266.861 550.471 266.438 550.779 265.927C551.12 265.34 551.186 264.715 549.759 264.871C547.189 265.153 542.125 266.5 540.488 268.92C540.488 268.92 538.954 259.047 543.901 254.687C546.057 253.294 548.619 252.667 551.176 252.905C551.176 252.905 549.823 250.228 545.595 251.876C545.595 251.876 551.718 243.959 560.963 254.313Z" fill="#5E7C24"/>
<path d="M565.56 270.531C564.719 268.496 563.946 266.47 562.981 264.548C562.52 263.588 561.965 262.676 561.323 261.827C560.724 260.94 559.81 260.312 558.767 260.07C559.339 260.052 559.907 260.164 560.429 260.4C560.95 260.636 561.41 260.988 561.774 261.429C562.541 262.254 563.181 263.189 563.671 264.203C564.653 266.191 565.292 268.331 565.56 270.531V270.531Z" fill="#50661A"/>
<path d="M544.486 275.405C545.009 274.275 545.668 273.211 546.448 272.239C547.217 271.244 548.112 270.352 549.109 269.585C550.111 268.793 551.258 268.205 552.487 267.854C553.718 267.528 555.019 267.57 556.226 267.975C555.021 267.871 553.807 268.026 552.666 268.427C551.553 268.858 550.512 269.454 549.577 270.196C548.618 270.93 547.723 271.745 546.901 272.631C546.07 273.518 545.254 274.433 544.486 275.405Z" fill="#50661A"/>
<path d="M554.107 255.631C554.485 255.127 554.96 254.703 555.504 254.384C556.048 254.065 556.65 253.858 557.275 253.774C557.902 253.676 558.54 253.659 559.171 253.723C559.487 253.753 559.798 253.817 560.111 253.867L561.03 254.105L561.257 254.163L561.163 254.4C559.965 257.422 558.946 260.526 557.941 263.623C556.957 266.73 556.07 269.866 555.202 273.008C554.368 276.158 553.587 279.323 552.859 282.503C552.127 285.682 551.483 288.88 550.824 292.081C551.227 288.839 551.71 285.603 552.345 282.395C552.921 279.175 553.704 275.996 554.499 272.823C555.3 269.65 556.252 266.516 557.277 263.408C558.296 260.297 559.437 257.23 560.762 254.225L560.895 254.521L560.02 254.26C559.722 254.204 559.426 254.13 559.126 254.08C558.525 253.984 557.915 253.964 557.309 254.022C556.074 254.125 554.926 254.702 554.107 255.631Z" fill="#50661A"/>
<path d="M557.279 283.637C556.981 282.52 556.569 281.437 556.05 280.403C555.808 279.939 555.445 279.548 554.999 279.272C554.483 279.043 553.921 278.938 553.357 278.967C553.636 278.802 553.946 278.695 554.268 278.652C554.59 278.61 554.917 278.632 555.23 278.718C555.867 278.956 556.395 279.417 556.716 280.016C557.318 281.122 557.517 282.402 557.279 283.637Z" fill="#50661A"/>
<path d="M523.046 358.512C523.046 358.512 521.222 352.227 516.592 355.78C515.018 357.028 513.892 358.752 513.384 360.693C512.549 363.701 511.827 369.151 513.883 376.886C513.883 376.886 518.623 370.341 522.13 368.025C526.084 365.414 528.635 359.444 523.046 358.512Z" fill="#C4CE6E"/>
<path d="M523.046 358.511C522.35 359.025 521.742 359.649 521.248 360.358C520.724 361.041 520.25 361.76 519.83 362.51C518.986 364.012 518.224 365.559 517.548 367.144C516.868 368.732 516.253 370.348 515.646 371.973L513.883 376.886C514.034 376.026 514.233 375.177 514.407 374.32C514.608 373.47 514.859 372.634 515.083 371.788C515.571 370.106 516.158 368.454 516.84 366.841C517.529 365.222 518.363 363.668 519.329 362.197C520.238 360.676 521.516 359.409 523.046 358.511Z" fill="#8B9D36"/>
<path d="M529.728 271.215C529.728 271.215 529.883 264.665 524.406 266.603C522.533 267.3 520.941 268.592 519.874 270.28C518.174 272.883 515.847 277.846 515.478 285.85C515.478 285.85 521.959 281.098 525.994 279.986C530.544 278.733 534.768 273.846 529.728 271.215Z" fill="#8B9D36"/>
<path d="M529.728 271.215C528.911 271.486 528.145 271.891 527.46 272.412C526.756 272.898 526.088 273.435 525.461 274.018C524.205 275.186 523.014 276.421 521.894 277.719C520.77 279.019 519.698 280.366 518.632 281.723L515.478 285.85C515.879 285.08 516.324 284.335 516.747 283.574C517.194 282.829 517.684 282.111 518.151 281.377C519.122 279.929 520.177 278.539 521.312 277.215C522.456 275.889 523.717 274.668 525.081 273.568C526.404 272.402 528.004 271.593 529.728 271.215V271.215Z" fill="#5E7C24"/>
<path d="M571.061 358.512C571.061 358.512 572.885 352.227 577.515 355.78C579.089 357.028 580.215 358.752 580.723 360.693C581.558 363.701 582.28 369.151 580.224 376.886C580.224 376.886 575.484 370.341 571.977 368.025C568.023 365.414 565.472 359.444 571.061 358.512Z" fill="#8B9D36"/>
<path d="M571.061 358.511C572.591 359.409 573.869 360.676 574.778 362.197C575.744 363.668 576.578 365.222 577.267 366.841C577.949 368.454 578.536 370.106 579.024 371.788C579.248 372.634 579.499 373.47 579.7 374.32C579.874 375.177 580.073 376.026 580.224 376.886L578.461 371.973C577.854 370.349 577.239 368.732 576.559 367.144C575.883 365.56 575.121 364.012 574.277 362.51C573.857 361.76 573.383 361.041 572.859 360.358C572.365 359.649 571.757 359.025 571.061 358.511Z" fill="#5E7C24"/>
<path d="M544.066 387.306L543.295 387.266C547.098 314.142 557.729 294.575 565.978 291.036C567.099 290.514 568.343 290.308 569.573 290.441C570.803 290.574 571.973 291.04 572.957 291.789L572.457 292.374C571.579 291.718 570.539 291.313 569.448 291.203C568.356 291.093 567.256 291.283 566.264 291.751C559.681 294.594 548.045 310.789 544.066 387.306Z" fill="#50661A"/>
<path d="M545.864 387.414C539.038 368.098 549.974 295.121 550.443 292.024L551.206 292.139C551.091 292.896 539.829 368.023 546.591 387.158L545.864 387.414Z" fill="#50661A"/>
<path d="M541.481 387.379C541.419 387.129 535.149 362.349 527.125 358.747C526.514 358.45 525.841 358.305 525.162 358.323C524.483 358.341 523.818 358.523 523.225 358.852L522.868 358.171C523.565 357.788 524.344 357.578 525.14 357.556C525.935 357.534 526.724 357.702 527.442 358.045C535.804 361.799 541.971 386.158 542.229 387.193L541.481 387.379Z" fill="#50661A"/>
<path d="M543.465 377.129L542.696 377.084C542.755 376.067 548.489 275.443 535.176 269.517C533.694 268.858 531.952 269.52 530.002 271.487L529.454 270.944C531.654 268.727 533.683 268.013 535.491 268.814C549.285 274.954 543.709 372.959 543.465 377.129Z" fill="#50661A"/>
<path d="M552.626 387.379L551.879 387.193C552.137 386.158 558.304 361.799 566.666 358.045C567.383 357.702 568.172 357.534 568.968 357.556C569.763 357.578 570.542 357.788 571.24 358.17L570.883 358.852C570.289 358.522 569.625 358.34 568.946 358.322C568.266 358.304 567.593 358.45 566.982 358.747C558.958 362.35 552.689 387.129 552.626 387.379Z" fill="#50661A"/>
<path d="M544.656 386.563C539.473 358.2 531.786 347.979 526.249 344.398C522.712 342.111 520.222 342.683 520.199 342.689L520.014 341.941C520.13 341.912 522.855 341.287 526.668 343.752C532.332 347.415 540.183 357.792 545.415 386.424L544.656 386.563Z" fill="#50661A"/>
<path d="M547.408 386.586C529.959 316.652 525.253 312.844 525.208 312.814L525.635 312.173C525.831 312.303 530.635 316.175 548.156 386.4L547.408 386.586Z" fill="#50661A"/>
<path d="M550.893 387.306L550.122 387.266C551.733 356.415 569.1 328.648 569.275 328.371L569.927 328.782C569.753 329.057 552.493 356.661 550.893 387.306Z" fill="#50661A"/>
<path d="M523.138 379.139V385.525C523.132 386.112 523.36 386.678 523.772 387.097C524.183 387.516 524.745 387.755 525.333 387.76H569.321C569.909 387.755 570.47 387.516 570.882 387.097C571.294 386.678 571.522 386.112 571.516 385.525V379.64C571.522 379.057 571.297 378.495 570.89 378.077C570.484 377.659 569.929 377.417 569.345 377.405L525.358 376.904C525.064 376.903 524.774 376.961 524.503 377.073C524.232 377.186 523.987 377.351 523.78 377.559C523.574 377.766 523.411 378.013 523.3 378.284C523.19 378.556 523.135 378.846 523.138 379.139Z" fill="#D6694B"/>
<path d="M525.238 387.76L526.801 420.725H566.817L569.417 387.76H525.238Z" fill="#E19974"/>
<path d="M562.399 326.697C562.46 323.69 568.691 329.146 568.691 329.146C564.98 312.52 553.122 319.453 553.122 319.453C542.28 307.235 535.24 315.948 535.24 315.948C540.134 314.277 541.73 317.386 541.73 317.386C538.808 316.976 535.834 317.568 533.293 319.065C527.589 323.791 529.46 335.092 529.46 335.092C531.338 332.418 537.217 331.128 540.195 330.926C542.066 330.802 541.737 331.719 541.234 332.418C540.896 332.872 540.46 333.244 539.959 333.506C536.981 335.056 534.111 336.803 531.369 338.738C528.574 340.929 535.4 351.493 535.4 351.493C536.851 349.34 540.951 347.909 540.951 347.909C545.372 347.529 536.629 353.988 536.629 353.988L541.692 361.931L547.075 359.934L546.029 356.739C546.235 353.646 547.915 357.874 548.701 358.542C549.487 359.219 556.359 353.063 556.359 353.063C556.359 353.063 552.374 337.906 555.481 339.6C558.597 341.287 560.368 348.158 561.093 348.508C561.636 348.772 564.652 343.603 566.148 340.968C566.69 340.028 567.041 338.989 567.18 337.913C567.319 336.836 567.243 335.743 566.958 334.696C565.958 331.766 564.411 329.052 562.399 326.697ZM545.013 326.573C543.028 328.213 539.974 327.304 539.485 326.084C538.989 324.871 540.508 322.454 542.784 320.915C544.914 319.469 547.365 320.549 547.854 321.77C548.35 322.982 547.22 324.739 545.013 326.573V326.573Z" fill="#5E7C24"/>
<path d="M553.12 319.453C553.515 321.265 553.774 323.104 553.893 324.955C553.93 326.82 553.764 328.684 553.398 330.514C553.025 332.336 552.534 334.132 551.927 335.89C551.354 337.647 550.761 339.406 550.098 341.139C548.747 344.591 547.168 347.95 545.372 351.195C544.495 352.807 543.772 354.497 543.213 356.244C542.63 357.993 542.176 359.782 541.855 361.597C542.185 357.887 543.198 354.27 544.843 350.927C545.652 349.258 546.514 347.637 547.264 345.957C548.022 344.282 548.724 342.579 549.38 340.861C550.059 339.152 550.668 337.417 551.262 335.67C551.861 333.927 552.399 332.173 552.82 330.393C553.246 328.612 553.479 326.791 553.517 324.96C553.5 323.118 553.367 321.279 553.12 319.453V319.453Z" fill="#50661A"/>
<path d="M553.643 326.84C554.727 327.571 555.704 328.45 556.546 329.45C557.402 330.437 558.177 331.491 558.861 332.604C559.544 333.713 560.147 334.87 560.667 336.065C560.927 336.661 561.153 337.271 561.394 337.872C561.59 338.493 561.799 339.107 561.967 339.734L560.134 336.326C559.501 335.209 558.887 334.088 558.205 333.007C557.538 331.918 556.826 330.859 556.084 329.818C555.711 329.299 555.324 328.788 554.912 328.298C554.515 327.79 554.091 327.303 553.643 326.84V326.84Z" fill="#50661A"/>
<path d="M548.255 344.605C549.059 345.386 549.701 346.317 550.144 347.346C550.372 347.864 550.539 348.406 550.641 348.962C550.777 349.535 550.693 350.139 550.406 350.653C550.395 350.123 550.277 349.6 550.06 349.116C549.86 348.629 549.655 348.141 549.438 347.654C548.978 346.664 548.583 345.646 548.255 344.605V344.605Z" fill="#50661A"/>
<path d="M551.26 336.777C549.945 337.266 548.638 337.745 547.345 338.251C546.055 338.765 544.767 339.273 543.516 339.857C542.255 340.413 541.028 341.043 539.841 341.741C538.643 342.434 537.537 343.274 536.548 344.242C537.333 343.061 538.341 342.043 539.515 341.247C540.668 340.427 541.902 339.727 543.197 339.157C544.479 338.575 545.801 338.086 547.153 337.693C548.496 337.282 549.869 336.976 551.26 336.777V336.777Z" fill="#50661A"/>
<path d="M590.048 307.903C590.048 307.903 598.986 294.576 610.165 310.314C610.165 310.314 601.41 307.678 602.694 310.891C605.806 312.386 608.589 314.484 610.88 317.064C612.429 319.075 613.139 321.605 612.861 324.126C612.521 327.667 611.765 334.663 611.101 334.659C610.211 334.653 605.346 328.267 601.435 328.049C597.523 327.831 608.329 341.868 608.329 341.868C608.329 341.868 604.109 351.852 603.012 351.54C601.915 351.227 598.32 347.599 599.493 350.976L601.977 353.834L597.411 358.659L588.732 352.8C588.732 352.8 594.718 341.55 590.407 344.184C590.407 344.184 586.882 347.764 586.372 350.781C586.372 350.781 574.74 343.035 576.591 339.3C578.497 335.89 580.618 332.605 582.943 329.464C583.411 328.838 583.715 328.104 583.829 327.331C583.945 326.431 583.716 325.613 582.063 326.578C579.124 328.293 573.744 332.623 573.031 336.404C573.031 336.404 566.086 325.378 569.768 317.495C571.628 314.675 574.375 312.551 577.576 311.459C577.576 311.459 574.568 308.971 570.347 313.214C570.346 313.214 573.6 300.432 590.048 307.903Z" fill="#C4CE6E"/>
<path d="M590.048 307.903C591.611 311.917 592.902 316.031 593.914 320.217C594.963 324.395 595.774 328.632 596.41 332.893C597.027 337.157 597.428 341.451 597.608 345.756C597.794 350.057 597.729 354.366 597.411 358.659C597.378 354.358 597.356 350.066 597.016 345.788C596.888 343.647 596.675 341.514 596.476 339.38C596.218 337.252 595.996 335.119 595.647 333.003C595.079 328.754 594.26 324.541 593.339 320.352C592.413 316.164 591.345 312.003 590.048 307.903Z" fill="#8B9D36"/>
<path d="M592.279 314.997C591.556 315.895 590.91 316.852 590.347 317.858C589.786 318.853 589.28 319.877 588.831 320.927C588.381 321.976 587.989 323.051 587.626 324.141C587.266 325.233 586.945 326.341 586.603 327.462C586.623 326.878 586.682 326.296 586.735 325.711C586.832 325.136 586.902 324.55 587.046 323.981C587.304 322.832 587.665 321.709 588.123 320.624C588.59 319.539 589.166 318.505 589.842 317.536C590.506 316.56 591.33 315.701 592.279 314.997V314.997Z" fill="#8B9D36"/>
<path d="M595.998 332.649C597.182 332.915 598.298 333.422 599.277 334.137C600.256 334.853 601.076 335.762 601.688 336.808C602.096 337.501 602.387 338.257 602.546 339.044C602.094 338.383 601.674 337.739 601.189 337.145C600.722 336.546 600.21 335.983 599.658 335.461C599.112 334.929 598.533 334.432 597.923 333.974C597.308 333.516 596.678 333.065 595.998 332.649Z" fill="#8B9D36"/>
<path d="M332.126 90.568C349.867 90.568 364.249 76.2125 364.249 58.5041C364.249 40.7957 349.867 26.4402 332.126 26.4402C314.384 26.4402 300.002 40.7957 300.002 58.5041C300.002 76.2125 314.384 90.568 332.126 90.568Z" fill="#D3D4F1"/>
<path d="M332.125 91.14C325.658 91.14 319.337 89.2259 313.96 85.6398C308.583 82.0537 304.392 76.9566 301.917 70.9932C299.442 65.0297 298.795 58.4677 300.056 52.1369C301.318 45.8061 304.432 39.9909 309.005 35.4266C313.578 30.8624 319.404 27.7541 325.746 26.4948C332.089 25.2356 338.663 25.8819 344.638 28.352C350.612 30.8222 355.719 35.0052 359.312 40.3722C362.905 45.7392 364.822 52.049 364.822 58.5039C364.812 67.1565 361.364 75.4519 355.235 81.5703C349.105 87.6886 340.794 91.1302 332.125 91.14ZM332.125 27.0123C325.885 27.0123 319.785 28.8593 314.597 32.3196C309.408 35.7799 305.364 40.6982 302.976 46.4525C300.588 52.2069 299.964 58.5388 301.181 64.6475C302.398 70.7563 305.403 76.3675 309.816 80.7717C314.228 85.1759 319.85 88.1752 325.97 89.3903C332.09 90.6054 338.434 89.9817 344.199 87.5982C349.964 85.2147 354.891 81.1784 358.358 75.9996C361.825 70.8209 363.675 64.7323 363.675 58.5039C363.666 50.1546 360.339 42.15 354.424 36.2462C348.51 30.3424 340.49 27.0216 332.125 27.0123Z" fill="#4724BE"/>
<path d="M332.125 61.3641C331.973 61.3639 331.827 61.3035 331.72 61.1962C331.613 61.0889 331.552 60.9435 331.552 60.7918V40.1156C331.552 39.9638 331.612 39.8182 331.72 39.7109C331.827 39.6035 331.973 39.5433 332.125 39.5433C332.277 39.5433 332.423 39.6035 332.531 39.7109C332.638 39.8182 332.698 39.9638 332.698 40.1156V60.7918C332.698 60.9435 332.638 61.0889 332.53 61.1962C332.423 61.3035 332.277 61.3639 332.125 61.3641V61.3641Z" fill="#4724BE"/>
<path d="M349.948 65.6415C349.859 65.6412 349.771 65.6204 349.692 65.5808L328.199 54.8226C328.131 54.7892 328.071 54.7428 328.021 54.6861C327.972 54.6293 327.934 54.5633 327.91 54.492C327.886 54.4206 327.876 54.3452 327.881 54.2701C327.887 54.195 327.907 54.1216 327.94 54.0543C327.974 53.987 328.021 53.9269 328.078 53.8777C328.135 53.8284 328.201 53.7908 328.273 53.7672C328.344 53.7435 328.42 53.7341 328.495 53.7397C328.57 53.7452 328.644 53.7655 328.711 53.7994L350.204 64.5576C350.32 64.6152 350.412 64.7101 350.467 64.8268C350.522 64.9436 350.535 65.0753 350.506 65.2007C350.476 65.3261 350.405 65.4379 350.304 65.5179C350.202 65.5979 350.077 65.6414 349.948 65.6415H349.948Z" fill="#4724BE"/>
<path d="M612.91 420.763H2.59708V423.2H612.91V420.763Z" fill="#935B50"/>
<g clip-path="url(#clip0_56_3106)">
<path d="M415.616 183.104L349.134 183.023C347.298 183.021 345.807 184.515 345.805 186.361L345.746 235.448C345.743 237.293 347.23 238.791 349.067 238.793L415.549 238.874C417.385 238.877 418.876 237.383 418.878 235.537L418.937 186.45C418.94 184.604 417.453 183.107 415.616 183.104Z" fill="#E5E1E5"/>
<path d="M418.932 190.04L345.8 189.951V189.647L418.932 189.737V190.04Z" fill="#8D9AC9"/>
<path d="M349.939 188.109C351.69 188.109 351.693 185.375 349.939 185.375C348.188 185.375 348.186 188.109 349.939 188.109Z" fill="#FFBA55"/>
<path d="M354.474 188.115C356.224 188.115 356.227 185.381 354.474 185.381C352.723 185.381 352.72 188.115 354.474 188.115Z" fill="#F73C4F"/>
<path d="M358.706 188.12C360.457 188.12 360.459 185.386 358.706 185.386C356.955 185.386 356.952 188.12 358.706 188.12Z" fill="#4F66D0"/>
<path d="M396.38 216.59L368.302 216.556V216.252L396.38 216.286V216.59Z" fill="#8D9AC9"/>
<path d="M408.601 206.861H356.081V211.959H408.601V206.861Z" fill="#F7F7F9"/>
<path d="M367.454 203.989C369.753 203.989 369.756 200.399 367.454 200.399C365.155 200.399 365.151 203.989 367.454 203.989Z" fill="#4F66D0"/>
<path d="M373.409 203.989C375.708 203.989 375.711 200.399 373.409 200.399C371.11 200.399 371.106 203.989 373.409 203.989Z" fill="#F73C4F"/>
<path d="M379.363 203.989C381.662 203.989 381.666 200.399 379.363 200.399C377.064 200.399 377.06 203.989 379.363 203.989Z" fill="#FFBA55"/>
<path d="M385.318 203.989C387.617 203.989 387.621 200.399 385.318 200.399C383.019 200.399 383.015 203.989 385.318 203.989Z" fill="#4F66D0"/>
<path d="M391.273 203.989C393.572 203.989 393.576 200.399 391.273 200.399C388.974 200.399 388.97 203.989 391.273 203.989Z" fill="#8B9D36"/>
<path d="M397.228 203.989C399.527 203.989 399.531 200.399 397.228 200.399C394.929 200.399 394.925 203.989 397.228 203.989Z" fill="#F73C4F"/>
<path d="M406.567 209.618C406.648 209.618 406.728 209.602 406.803 209.57C406.878 209.539 406.946 209.494 407.003 209.436C407.061 209.378 407.106 209.31 407.137 209.235C407.168 209.16 407.184 209.079 407.184 208.997V207.964C407.184 207.8 407.119 207.642 407.003 207.526C406.888 207.41 406.731 207.345 406.567 207.345C406.404 207.345 406.247 207.41 406.131 207.526C406.016 207.642 405.951 207.8 405.951 207.964V208.997C405.951 209.079 405.967 209.159 405.997 209.235C406.028 209.31 406.074 209.378 406.131 209.436C406.188 209.493 406.256 209.539 406.331 209.57C406.406 209.601 406.486 209.618 406.567 209.618Z" fill="#4F66D0"/>
<path d="M407.595 208.79V208.951C407.6 209.213 407.508 209.468 407.337 209.666C407.166 209.864 406.929 209.992 406.67 210.026C406.527 210.04 406.383 210.024 406.246 209.979C406.11 209.934 405.984 209.86 405.878 209.763C405.771 209.667 405.686 209.548 405.627 209.416C405.569 209.285 405.539 209.142 405.539 208.997V208.79C405.539 208.763 405.533 208.736 405.523 208.711C405.513 208.686 405.498 208.664 405.479 208.645C405.46 208.625 405.437 208.61 405.413 208.6C405.388 208.59 405.361 208.584 405.334 208.584H405.332C405.305 208.584 405.278 208.59 405.254 208.6C405.229 208.61 405.206 208.625 405.187 208.645C405.168 208.664 405.153 208.686 405.143 208.711C405.133 208.736 405.128 208.763 405.128 208.79V208.997C405.128 209.345 405.253 209.68 405.48 209.943C405.706 210.205 406.019 210.377 406.361 210.427V211.063H405.95C405.895 211.063 405.843 211.085 405.805 211.124C405.766 211.162 405.744 211.215 405.744 211.27C405.744 211.325 405.766 211.377 405.805 211.416C405.843 211.455 405.895 211.477 405.95 211.477H407.183C407.237 211.477 407.29 211.455 407.328 211.416C407.366 211.377 407.388 211.325 407.388 211.27C407.388 211.215 407.366 211.162 407.328 211.124C407.29 211.085 407.237 211.063 407.183 211.063H406.772V210.427C407.114 210.377 407.427 210.205 407.653 209.943C407.88 209.68 408.004 209.345 408.005 208.997V208.79C408.005 208.763 408 208.736 407.989 208.711C407.979 208.686 407.964 208.664 407.945 208.645C407.926 208.625 407.904 208.61 407.879 208.6C407.854 208.59 407.828 208.584 407.801 208.584H407.799C407.772 208.584 407.746 208.59 407.721 208.6C407.696 208.61 407.674 208.625 407.655 208.645C407.636 208.664 407.621 208.686 407.611 208.711C407.6 208.736 407.595 208.763 407.595 208.79V208.79Z" fill="#F73C4F"/>
<path d="M361.945 208.059V209.06H363.097V208.059H363.408V210.452H363.097V209.33H361.945V210.452H361.638V208.059H361.945Z" fill="black"/>
<path d="M365.478 209.579C365.488 209.696 365.473 209.815 365.435 209.926C365.397 210.038 365.335 210.14 365.255 210.226C365.174 210.312 365.077 210.38 364.969 210.426C364.86 210.472 364.744 210.494 364.626 210.491C364.513 210.493 364.401 210.47 364.297 210.425C364.193 210.381 364.099 210.315 364.022 210.231C363.945 210.148 363.886 210.05 363.848 209.942C363.811 209.835 363.797 209.721 363.806 209.607C363.796 209.49 363.81 209.372 363.849 209.26C363.887 209.149 363.948 209.047 364.028 208.961C364.108 208.875 364.205 208.807 364.313 208.761C364.421 208.715 364.537 208.692 364.654 208.695C364.768 208.692 364.881 208.714 364.986 208.759C365.09 208.803 365.185 208.869 365.262 208.952C365.34 209.036 365.399 209.135 365.436 209.242C365.473 209.35 365.488 209.465 365.478 209.579ZM364.121 209.597C364.121 209.973 364.336 210.257 364.64 210.257C364.937 210.257 365.16 209.976 365.16 209.59C365.16 209.298 365.015 208.929 364.647 208.929C364.28 208.929 364.121 209.27 364.121 209.597H364.121Z" fill="black"/>
<path d="M365.969 208.734L366.195 209.607C366.244 209.799 366.29 209.976 366.322 210.154H366.333C366.372 209.98 366.428 209.795 366.485 209.611L366.764 208.734H367.025L367.29 209.593C367.354 209.799 367.403 209.98 367.442 210.154H367.453C367.486 209.966 367.53 209.78 367.584 209.597L367.827 208.734H368.135L367.584 210.452H367.301L367.039 209.632C366.979 209.447 366.928 209.258 366.887 209.067H366.88C366.839 209.26 366.787 209.449 366.725 209.636L366.449 210.452H366.167L365.651 208.734L365.969 208.734Z" fill="black"/>
<path d="M369.568 208.24V208.734H370.013V208.972H369.568V209.898C369.568 210.111 369.628 210.232 369.802 210.232C369.862 210.233 369.923 210.226 369.982 210.211L369.996 210.445C369.907 210.476 369.814 210.491 369.72 210.488C369.658 210.491 369.596 210.482 369.538 210.459C369.48 210.436 369.428 210.401 369.385 210.356C369.29 210.228 369.247 210.068 369.264 209.909V208.972H368.999V208.734H369.264V208.322L369.568 208.24Z" fill="black"/>
<path d="M371.889 209.579C371.899 209.696 371.884 209.815 371.846 209.926C371.808 210.038 371.746 210.14 371.666 210.226C371.585 210.312 371.488 210.38 371.38 210.426C371.271 210.472 371.155 210.494 371.037 210.491C370.924 210.493 370.812 210.47 370.708 210.425C370.604 210.381 370.51 210.315 370.433 210.231C370.356 210.148 370.297 210.05 370.26 209.942C370.222 209.835 370.208 209.721 370.217 209.607C370.207 209.49 370.221 209.372 370.26 209.26C370.298 209.149 370.359 209.047 370.439 208.961C370.519 208.875 370.616 208.807 370.724 208.761C370.832 208.715 370.948 208.692 371.066 208.695C371.179 208.692 371.292 208.714 371.397 208.759C371.501 208.803 371.596 208.869 371.673 208.952C371.751 209.036 371.81 209.135 371.847 209.242C371.885 209.35 371.899 209.465 371.889 209.579V209.579ZM370.532 209.597C370.532 209.973 370.747 210.257 371.051 210.257C371.348 210.257 371.571 209.976 371.571 209.59C371.571 209.298 371.426 208.929 371.058 208.929C370.691 208.929 370.532 209.27 370.532 209.597H370.532Z" fill="black"/>
<path d="M373.546 207.344H373.101V211.477H373.546V207.344Z" fill="black"/>
<path d="M357.562 209.861C358.511 210.727 359.852 209.246 358.901 208.378C357.952 207.512 356.611 208.993 357.562 209.861Z" fill="#E5E1E5"/>
<path d="M359.969 210.872C359.928 210.872 359.888 210.856 359.858 210.829L358.833 209.893C358.816 209.879 358.803 209.861 358.794 209.841C358.785 209.821 358.779 209.8 358.778 209.778C358.777 209.756 358.78 209.734 358.788 209.714C358.795 209.693 358.806 209.674 358.821 209.658C358.836 209.641 358.853 209.628 358.873 209.619C358.893 209.61 358.914 209.604 358.936 209.603C358.958 209.602 358.979 209.605 359 209.613C359.021 209.62 359.039 209.631 359.056 209.646L360.081 210.581C360.106 210.604 360.123 210.634 360.131 210.666C360.139 210.699 360.136 210.734 360.124 210.765C360.112 210.796 360.091 210.824 360.063 210.843C360.036 210.862 360.003 210.872 359.969 210.872V210.872Z" fill="#E5E1E5"/>
</g>
<defs>
<clipPath id="clip0_56_3106">
<rect width="73" height="56" fill="white" transform="translate(346 183)"/>
</clipPath>
</defs>
</svg>
