<svg width="45" height="45" viewBox="0 0 45 45" fill="none" xmlns="http://www.w3.org/2000/svg">
<rect width="45" height="45" fill="white"/>
<path d="M22.5 20.5271C23.5737 20.5271 24.6232 20.2477 25.516 19.7243C26.4087 19.2008 27.1045 18.4569 27.5153 17.5865C27.9262 16.716 28.0337 15.7583 27.8243 14.8342C27.6148 13.9102 27.0978 13.0614 26.3386 12.3952C25.5794 11.729 24.6121 11.2753 23.5591 11.0915C22.506 10.9077 21.4145 11.0021 20.4226 11.3626C19.4306 11.7231 18.5828 12.3337 17.9863 13.1171C17.3898 13.9004 17.0714 14.8214 17.0714 15.7635C17.0714 17.0269 17.6434 18.2385 18.6614 19.1319C19.6795 20.0252 21.0603 20.5271 22.5 20.5271ZM22.5 13.3818C23.0368 13.3818 23.5616 13.5215 24.008 13.7832C24.4543 14.0449 24.8022 14.4169 25.0077 14.8521C25.2131 15.2873 25.2669 15.7662 25.1621 16.2282C25.0574 16.6902 24.7989 17.1146 24.4193 17.4477C24.0397 17.7808 23.5561 18.0076 23.0295 18.0995C22.503 18.1914 21.9573 18.1443 21.4613 17.964C20.9653 17.7837 20.5414 17.4785 20.2432 17.0868C19.9449 16.6951 19.7857 16.2346 19.7857 15.7635C19.7857 15.1319 20.0717 14.526 20.5807 14.0794C21.0897 13.6327 21.7801 13.3818 22.5 13.3818ZM22.5 22.9088C19.9804 22.9088 17.5641 23.7871 15.7825 25.3504C14.0009 26.9138 13 29.0341 13 31.245C13 31.5609 13.143 31.8638 13.3975 32.0871C13.652 32.3104 13.9972 32.4359 14.3571 32.4359C14.7171 32.4359 15.0623 32.3104 15.3168 32.0871C15.5713 31.8638 15.7143 31.5609 15.7143 31.245C15.7143 29.6658 16.4292 28.1513 17.7018 27.0346C18.9743 25.9179 20.7003 25.2906 22.5 25.2906C24.2997 25.2906 26.0257 25.9179 27.2982 27.0346C28.5708 28.1513 29.2857 29.6658 29.2857 31.245C29.2857 31.5609 29.4287 31.8638 29.6832 32.0871C29.9377 32.3104 30.2829 32.4359 30.6429 32.4359C31.0028 32.4359 31.348 32.3104 31.6025 32.0871C31.857 31.8638 32 31.5609 32 31.245C32 29.0341 30.9991 26.9138 29.2175 25.3504C27.4359 23.7871 25.0196 22.9088 22.5 22.9088V22.9088Z" fill="#4724BE"/>
</svg>
